<?xml version="1.0" encoding="utf-8"?>
<!-- Generator: Adobe Illustrator 22.0.1, SVG Export Plug-In . SVG Version: 6.00 Build 0)  -->
<svg version="1.1" id="Layer_1" xmlns="http://www.w3.org/2000/svg" xmlns:xlink="http://www.w3.org/1999/xlink" x="0px" y="0px"
	 viewBox="0 0 2880 420.6" style="enable-background:new 0 0 2880 420.6;" xml:space="preserve">
<style type="text/css">
	.st0{fill:#FCFCFC;}
</style>
<g>
	<path class="st0" d="M2472.2,375.6c-79.3,0-154.4,7.2-221.5,20.1c-51.5-26.3-109.8-41.1-171.6-41.1c-42.4,0-83.1,7-121.2,19.8
		c-45.2-42.7-106.2-68.9-173.4-68.9c-61.1,0-117.2,21.7-160.9,57.9c-22.2-24-53.9-39-89.2-39c-37.4,0-70.8,16.8-93.1,43.3
		c-22.3-26.5-55.7-43.3-93.1-43.3c-35.2,0-67,15-89.2,39c-43.7-36.1-99.7-57.9-160.9-57.9c-67.1,0-128.1,26.2-173.4,68.9
		c-38-12.9-78.8-19.8-121.2-19.8c-61.8,0-120.1,14.8-171.6,41.1c-67-12.9-142.2-20.1-221.5-20.1c-121.4,0-233,16.9-320.9,45.1
		h2703.2C2705.2,392.5,2593.6,375.6,2472.2,375.6z"/>
</g>
</svg>
