<?xml version="1.0" encoding="utf-8"?>
<!-- Generator: Adobe Illustrator 22.0.1, SVG Export Plug-In . SVG Version: 6.00 Build 0)  -->
<svg version="1.1" id="Layer_1" xmlns="http://www.w3.org/2000/svg" xmlns:xlink="http://www.w3.org/1999/xlink" x="0px" y="0px"
	 viewBox="0 0 2880 420.6" style="enable-background:new 0 0 2880 420.6;" xml:space="preserve">
<style type="text/css">
	.st0{fill:#FCFCFC;}
</style>
<path class="st0" d="M1598.2,306.8c0.5-3.6,0.8-7.3,0.8-11.1c0-35.2-23.2-65-55.1-75.1c-14.9-48.6-60.1-83.9-113.6-83.9
	c-50.8,0-94.1,31.8-111.1,76.6c-25.4,9.3-43.5,33.7-43.5,62.4c0,2.2,0.1,4.4,0.3,6.6c-28.6,4.9-50.4,29.8-50.4,59.8
	c0,33.5,27.2,60.7,60.7,60.7c33.5,0,60.7-27.2,60.7-60.7c0-0.1,0-0.1,0-0.2c0.5,0,1.1-0.1,1.6-0.1c21.3,20.2,50,32.5,81.7,32.5
	c17.8,0,34.7-3.9,49.9-11c11.7,7,25.4,11,40.1,11c9.8,0,19.2-1.8,27.8-5.1c7.2,14.7,22.3,24.8,39.7,24.8c24.4,0,44.2-19.8,44.2-44.2
	C1632.1,328.9,1617.6,311.4,1598.2,306.8z"/>
</svg>
