<?xml version="1.0" encoding="utf-8"?>
<!-- Generator: Adobe Illustrator 22.0.1, SVG Export Plug-In . SVG Version: 6.00 Build 0)  -->
<svg version="1.1" id="Layer_1" xmlns="http://www.w3.org/2000/svg" xmlns:xlink="http://www.w3.org/1999/xlink" x="0px" y="0px"
	 viewBox="0 0 2880 420.6" style="enable-background:new 0 0 2880 420.6;" xml:space="preserve">
<style type="text/css">
	.st0{fill:#C5F0FC;}
</style>
<g>
	<path class="st0" d="M1848.1,354.5c0-66.8-37.6-124.8-92.8-154c-2.4-16.6-8.8-31.9-18.4-44.9c0.9-2.9,1.4-5.9,1.4-9.1
		c0-17.3-14-31.3-31.3-31.3c-6.5,0-12.6,2-17.6,5.4c-2.3-0.8-4.6-1.5-6.9-2.1c-3.4-9.4-11.3-16.6-21.1-19.1
		c-2.5-5.3-5.3-10.4-8.4-15.3c2.5-3.3,4.1-7.3,4.1-11.8c0-10.6-8.6-19.2-19.2-19.2c-3.4,0-6.6,0.9-9.3,2.4
		c-5-4.4-10.3-8.5-15.9-12.1c0.9-2.9,1.3-5.9,1.3-9.1C1614,17,1600,3,1582.6,3c-13.2,0-24.5,8.1-29.1,19.7
		c-4.5-0.5-9.1-0.7-13.8-0.7c-42.1,0-79.6,19.3-104.2,49.6c-24.6-30.3-62.2-49.6-104.2-49.6c-4.7,0-9.3,0.2-13.8,0.7
		c-4.6-11.5-15.9-19.7-29.1-19.7c-17.3,0-31.4,14.1-31.4,31.4c0,3.2,0.5,6.2,1.3,9.1c-5.6,3.6-10.9,7.7-15.9,12.1
		c-2.8-1.5-5.9-2.4-9.3-2.4c-10.6,0-19.2,8.6-19.2,19.2c0,4.4,1.5,8.5,4.1,11.8c-3.1,4.9-5.9,10-8.4,15.3
		c-9.8,2.5-17.7,9.7-21.1,19.1c-2.3,0.6-4.7,1.3-6.9,2.1c-5-3.4-11.1-5.4-17.6-5.4c-17.3,0-31.3,14-31.3,31.3c0,3.2,0.5,6.2,1.4,9.1
		c-9.5,12.9-16,28.2-18.4,44.9c-55.2,29.2-92.8,87.2-92.8,154c0,21.2,3.8,41.6,10.8,60.4h803.9
		C1844.3,396,1848.1,375.7,1848.1,354.5z"/>
</g>
</svg>
