<?xml version="1.0" encoding="utf-8"?>
<!-- Generator: Adobe Illustrator 22.0.1, SVG Export Plug-In . SVG Version: 6.00 Build 0)  -->
<svg version="1.1"
	 id="svg2" inkscape:version="0.91 r13725" sodipodi:docname="Space Shuttle.svg" xmlns:cc="http://creativecommons.org/ns#" xmlns:dc="http://purl.org/dc/elements/1.1/" xmlns:inkscape="http://www.inkscape.org/namespaces/inkscape" xmlns:rdf="http://www.w3.org/1999/02/22-rdf-syntax-ns#" xmlns:sodipodi="http://sodipodi.sourceforge.net/DTD/sodipodi-0.dtd" xmlns:svg="http://www.w3.org/2000/svg"
	 xmlns="http://www.w3.org/2000/svg" xmlns:xlink="http://www.w3.org/1999/xlink" x="0px" y="0px" viewBox="0 0 612 792"
	 style="enable-background:new 0 0 612 792;" xml:space="preserve">
<style type="text/css">
	.st0{fill:#FF0000;}
</style>
<g id="jpl-logo">
	<path id="path3203_1_" class="st0" d="M211.2,583.2l0.9-1.7l3.5-0.1c2.8-0.1,3.6-0.1,3.7-0.4c0.1-0.2,0.2-2.5,0.2-5.1l0-4.8h2.3
		h2.3v5.7c0,5.5,0,5.7-0.5,6.4c-0.3,0.4-0.8,0.9-1.1,1.2c-0.6,0.4-0.9,0.5-6.4,0.5l-5.8,0.1L211.2,583.2z"/>
	<path id="path3201_1_" class="st0" d="M225.6,578v-6.9h6.7c6.5,0,6.7,0,7.7,0.5c2.8,1.4,3.5,6.7,1.1,8.8c-1,0.9-1.7,1-5.8,1
		l-3.1-0.1l-0.9-1.6c-0.5-0.9-0.9-1.6-0.9-1.7c0,0,1.5-0.1,3.4-0.1c3.2,0,3.5,0,3.9-0.4c0.6-0.6,0.6-2,0-2.6
		c-0.4-0.4-0.7-0.4-3.9-0.4l-3.5,0.1l-0.1,5.1l-0.1,5.1h-2.3h-2.3L225.6,578L225.6,578z"/>
	<path id="path1873_1_" class="st0" d="M245,584.5c-1.3-0.6-1.3-0.9-1.3-7.5v-5.9h2h2l0.1,5l0.1,5l3.8,0.1l3.8,0.1l0.9,1.7
		c0.5,0.9,0.9,1.8,0.9,1.8s-2.6,0.1-5.7,0.1C246.6,584.8,245.6,584.8,245,584.5z"/>
</g>
</svg>
