<?xml version="1.0" encoding="utf-8"?>
<!-- Generator: Adobe Illustrator 22.0.1, SVG Export Plug-In . SVG Version: 6.00 Build 0)  -->
<svg version="1.1"
	 id="svg2" inkscape:version="0.91 r13725" sodipodi:docname="Space Shuttle.svg" xmlns:cc="http://creativecommons.org/ns#" xmlns:dc="http://purl.org/dc/elements/1.1/" xmlns:inkscape="http://www.inkscape.org/namespaces/inkscape" xmlns:rdf="http://www.w3.org/1999/02/22-rdf-syntax-ns#" xmlns:sodipodi="http://sodipodi.sourceforge.net/DTD/sodipodi-0.dtd" xmlns:svg="http://www.w3.org/2000/svg"
	 xmlns="http://www.w3.org/2000/svg" xmlns:xlink="http://www.w3.org/1999/xlink" x="0px" y="0px" viewBox="0 0 612 792"
	 style="enable-background:new 0 0 612 792;" xml:space="preserve">
<style type="text/css">
	.st0{fill:#0000FF;}
	.st1{fill:#FFFFFF;}
	.st2{fill:none;}
	.st3{fill:#FF0000;}
</style>
<g id="nasa-logo">
	<circle id="circle997" class="st0" cx="233.8" cy="579.1" r="17.7"/>
	<path id="path999" inkscape:connector-curvature="0" class="st1" d="M242.3,582.1h-2.3v-0.4l0.2,0l0.3-0.1l0.1-0.1l0.1,0l0.1-0.1
		l0.1-0.1l0.1-0.1l0-0.1l1.9-4.5l-0.2-0.5h2l2.1,5l0.1,0.1l0.1,0.1l0,0l0.1,0.1l0.1,0l0.1,0l0.2,0l0.1,0v0.4l-0.5,0l-0.9,0h-0.4
		h-0.5l-1,0l-0.5,0v-0.4l0.2,0l0.3-0.1l0.2-0.1l0.1-0.1l0.1-0.1l0-0.1l0-0.1v-0.1l0-0.1l0-0.1l-0.5-1.1H242l-0.1,0.3l-0.1,0.3
		l-0.1,0.3l-0.1,0.1l0,0.1l0,0.1l0,0.1l0,0.1l0,0.1l0,0.1l0.1,0.1l0.1,0.1l0,0l0.1,0l0.2,0l0.1,0h0.1l0.1,0V582.1z M242.2,579.9h1.8
		l-0.9-2.2L242.2,579.9z"/>
	<polygon id="polygon1001" class="st1" points="226.8,569.5 226.6,569.6 226.5,569.8 226.4,570 226.3,570.2 226.2,570.4 
		226.1,570.8 226.1,571.1 226.1,571.4 226.1,572 226.1,572.8 226.3,573.5 226.4,573.9 226.4,574.4 226.7,575.2 227,576.1 
		227.4,577.1 227.8,578 228.3,579 228.8,579.9 229.4,580.9 229.7,581.4 229.7,581.4 230,581.7 230.6,582.4 231.2,583 231.8,583.7 
		232.1,584 232.3,583.7 232,583.4 231.4,582.8 230.8,582.2 230.3,581.5 230,581.2 230,581.2 230,581.2 230,581.2 230,581.2 
		229.7,580.7 229.1,579.8 228.5,578.8 228,577.9 227.6,576.9 227.3,576 227,575.1 226.7,574.3 226.6,573.9 226.6,573.5 226.4,572.7 
		226.4,572 226.4,571.4 226.4,571.1 226.4,570.8 226.6,570.4 226.7,570.1 226.8,569.9 226.9,569.8 227,569.7 227,569.6 227,569.6 
		227.1,569.6 227.4,569.4 227.6,569.3 227.8,569.3 228.1,569.2 228.3,569.2 228.6,569.2 228.9,569.2 229,569.2 229.3,569.2 
		230,569.4 230.6,569.6 231.3,570 231.7,570.1 232,570.4 232.8,570.8 233.5,571.4 234.2,572 235,572.7 235.7,573.4 236.5,574.2 
		237.2,575.1 237.6,575.5 237.9,576 238.6,576.9 239.2,577.9 239.8,578.8 240.3,579.8 240.8,580.7 241.2,581.6 241.5,582.5 
		241.7,582.9 241.8,583.3 242,584.1 242.1,584.9 242.1,585.4 242.1,585.7 242.1,585.9 242.1,586 242,586.3 242,586.6 241.9,586.8 
		241.8,587 241.7,587.3 241.5,587.4 241.3,587.6 241.2,587.7 241.1,587.8 240.8,587.9 240.5,588 240.2,588 239.8,588 239.4,588 
		239,587.9 238.5,587.8 238.3,587.8 238,587.7 237.3,587.4 236.4,587 235.6,586.6 235.2,586.4 235.3,586.5 235.7,586.8 236.1,587.1 
		236.5,587.3 237.1,587.6 237.9,587.9 238.2,588 238.4,588.1 238.9,588.2 239.3,588.3 239.8,588.3 240.2,588.3 240.6,588.3 
		240.9,588.2 241.3,588 241.4,587.9 241.5,587.8 241.7,587.6 241.9,587.4 242,587.2 242.2,586.9 242.3,586.7 242.3,586.4 242.4,586 
		242.4,585.9 242.4,585.7 242.4,585.4 242.4,584.8 242.3,584 242.1,583.2 241.9,582.8 241.8,582.4 241.5,581.5 241.1,580.6 
		240.6,579.6 240.1,578.7 239.5,577.7 238.9,576.8 238.2,575.8 237.8,575.3 237.5,574.9 236.7,574 236,573.2 235.2,572.4 
		234.4,571.8 233.7,571.1 232.9,570.6 232.2,570.1 231.8,569.9 231.4,569.7 230.7,569.4 230,569.1 229.5,569 229.2,568.9 
		229.1,568.9 228.9,568.9 228.6,568.9 228.5,568.9 228.2,568.9 227.8,569 227.4,569.1 227,569.3 226.9,569.4 226.9,569.4 
		226.9,569.4 	"/>
	<polyline id="polyline1003" class="st2" points="246.3,573.3 245.8,573.6 244.9,574.1 244,574.6 243.1,575.1 242.2,575.5 
		241.3,575.9 240.3,576.3 239.4,576.6 238,577.2 236.1,577.8 234.1,578.3 232.2,578.9 229.4,579.6 226.5,580.4 224.7,580.9 
		222.8,581.4 221,582.1 219.7,582.6 218.8,582.9 218,583.3 217.1,583.7 216.7,583.9 217.1,583.6 218.1,583 219.1,582.4 220.1,581.9 
		221.2,581.4 222.3,580.9 223.4,580.4 224.6,579.9 226.3,579.2 228.7,578.3 232.4,577 236.2,575.6 238.1,574.9 239.4,574.4 
		240.6,573.8 241.8,573.3 243.1,572.7 244.3,572.1 245.5,571.4 246.7,570.7 247.8,569.9 248.9,569.2 250,568.3 251.1,567.5 
		252.2,566.5 253.2,565.5 253.7,565 253.5,565.3 253.3,565.9 253,566.5 252.7,567 252.3,567.6 252,568.1 251.4,568.9 250.7,570 
		249.8,571 248.9,571.9 247.9,572.9 247.4,573.3 	"/>
	<polygon id="polygon1005" class="st1" points="232.9,585.1 232.7,584.9 232.4,584.6 231.8,583.9 231.4,583.4 231.2,583.1 
		231.1,582.9 231.1,582.8 231.1,582.7 231.1,582.7 231.1,582.7 231.2,582.6 231.3,582.7 231.6,582.8 231.9,583 232.4,583.3 
		233.1,583.9 233.4,584.2 233.6,584.3 233.8,584.6 234,584.8 234.1,585 234.1,585.1 234.1,585.2 234.1,585.3 234,585.4 234,585.5 
		234,585.5 233.9,585.6 233.8,585.6 233.7,585.6 233.5,585.5 233.3,585.5 233.1,585.3 	"/>
	<polygon id="polygon1007" class="st1" points="228.1,582.6 228,582.5 228,582.5 228,582.4 228.1,582.4 228.1,582.3 228.2,582.3 
		228.2,582.3 228.3,582.3 228.3,582.3 228.4,582.4 228.4,582.4 228.4,582.5 228.4,582.5 228.4,582.6 228.3,582.6 228.3,582.7 
		228.2,582.7 228.2,582.7 228.1,582.6 	"/>
	<polygon id="polygon1009" class="st1" points="222.4,586.5 222.4,586.4 222.4,586.4 222.4,586.4 222.4,586.3 222.4,586.2 
		222.5,586.2 222.6,586.2 222.6,586.2 222.7,586.2 222.7,586.3 222.7,586.4 222.7,586.4 222.7,586.4 222.7,586.5 222.7,586.6 
		222.6,586.6 222.6,586.6 222.5,586.6 222.4,586.6 	"/>
	<polygon id="polygon1011" class="st1" points="224.1,586.4 224,586.3 224,586.3 224,586.2 224.1,586.1 224.1,586.1 224.2,586.1 
		224.2,586.1 224.3,586.1 224.3,586.1 224.4,586.1 224.4,586.2 224.4,586.3 224.4,586.3 224.4,586.4 224.3,586.4 224.3,586.4 
		224.2,586.5 224.2,586.4 224.1,586.4 	"/>
	<polygon id="polygon1013" class="st1" points="223.8,587.2 223.8,587.2 223.8,587.1 223.8,587.1 223.8,587 223.9,587 224,586.9 
		224,586.9 224.1,586.9 224.1,587 224.2,587 224.2,587.1 224.2,587.1 224.2,587.2 224.2,587.2 224.1,587.3 224.1,587.3 224,587.3 
		224,587.3 223.9,587.3 	"/>
	<polygon id="polygon1015" class="st1" points="224.5,587.7 224.5,587.7 224.5,587.6 224.5,587.6 224.5,587.5 224.6,587.5 
		224.6,587.4 224.7,587.4 224.7,587.4 224.8,587.5 224.8,587.5 224.9,587.6 224.9,587.6 224.9,587.7 224.8,587.7 224.8,587.8 
		224.7,587.8 224.7,587.8 224.6,587.8 224.6,587.8 	"/>
	<polygon id="polygon1017" class="st1" points="226.5,587.1 226.5,587 226.5,587 226.5,587 226.5,586.9 226.5,586.8 226.6,586.8 
		226.7,586.8 226.7,586.8 226.8,586.8 226.8,586.9 226.9,587 226.9,587 226.9,587 226.8,587.1 226.8,587.2 226.7,587.2 226.7,587.2 
		226.6,587.2 226.5,587.2 	"/>
	<polygon id="polygon1019" class="st1" points="228.1,585.6 228.1,585.5 228.1,585.4 228.1,585.4 228.1,585.3 228.2,585.3 
		228.3,585.3 228.3,585.2 228.3,585.3 228.4,585.3 228.5,585.3 228.5,585.4 228.5,585.4 228.5,585.5 228.5,585.6 228.4,585.6 
		228.3,585.6 228.3,585.6 228.3,585.6 228.2,585.6 	"/>
	<polygon id="polygon1021" class="st1" points="229.3,589.3 229.3,589.2 229.3,589.2 229.3,589.1 229.3,589.1 229.4,589 229.4,589 
		229.5,589 229.5,589 229.6,589 229.6,589.1 229.7,589.1 229.7,589.2 229.7,589.2 229.6,589.3 229.6,589.3 229.5,589.4 229.5,589.4 
		229.4,589.4 229.4,589.3 	"/>
	<polygon id="polygon1023" class="st1" points="229.1,587.8 229.1,587.7 229.1,587.7 229.1,587.6 229.1,587.6 229.1,587.5 
		229.2,587.5 229.3,587.5 229.3,587.5 229.4,587.5 229.4,587.6 229.4,587.6 229.4,587.7 229.4,587.7 229.4,587.8 229.4,587.8 
		229.3,587.9 229.3,587.9 229.2,587.9 229.1,587.8 	"/>
	<polygon id="polygon1025" class="st1" points="227.6,589 227.6,588.9 227.6,588.9 227.6,588.8 227.6,588.7 227.7,588.7 
		227.7,588.7 227.8,588.7 227.8,588.7 227.9,588.7 228,588.7 228,588.8 228,588.9 228,588.9 228,589 227.9,589 227.8,589 
		227.8,589.1 227.7,589 227.7,589 	"/>
	<polygon id="polygon1027" class="st1" points="232.8,589 232.7,588.9 232.7,588.9 232.7,588.8 232.8,588.7 232.8,588.7 
		232.9,588.7 232.9,588.7 233,588.7 233.1,588.7 233.1,588.7 233.1,588.8 233.1,588.9 233.1,588.9 233.1,589 233.1,589 233,589 
		232.9,589.1 232.9,589 232.8,589 	"/>
	<polygon id="polygon1029" class="st1" points="235.7,587.9 235.7,587.8 235.7,587.8 235.7,587.8 235.7,587.7 235.8,587.6 
		235.9,587.6 235.9,587.6 235.9,587.6 236,587.6 236.1,587.7 236.1,587.8 236.1,587.8 236.1,587.8 236.1,587.9 236,588 235.9,588 
		235.9,588 235.9,588 235.8,588 	"/>
	<polygon id="polygon1031" class="st1" points="240.2,585.3 240.2,585.2 240.2,585.2 240.2,585.1 240.2,585.1 240.3,585 240.3,585 
		240.4,585 240.4,585 240.5,585 240.5,585.1 240.6,585.1 240.6,585.2 240.6,585.2 240.5,585.3 240.5,585.4 240.4,585.4 240.4,585.4 
		240.3,585.4 240.3,585.4 	"/>
	<polygon id="polygon1033" class="st1" points="241.3,584.4 241.3,584.3 241.3,584.3 241.3,584.3 241.3,584.2 241.4,584.1 
		241.5,584.1 241.5,584.1 241.6,584.1 241.6,584.1 241.7,584.2 241.7,584.3 241.7,584.3 241.7,584.3 241.7,584.4 241.6,584.5 
		241.6,584.5 241.5,584.5 241.5,584.5 241.4,584.5 	"/>
	<polygon id="polygon1035" class="st1" points="241.3,585.5 241.3,585.4 241.3,585.4 241.3,585.3 241.3,585.3 241.4,585.2 
		241.5,585.2 241.5,585.2 241.5,585.2 241.6,585.2 241.7,585.3 241.7,585.3 241.7,585.4 241.7,585.4 241.7,585.5 241.6,585.5 
		241.5,585.6 241.5,585.6 241.5,585.6 241.4,585.5 	"/>
	<polygon id="polygon1037" class="st1" points="240.2,587.1 240.2,587 240.2,587 240.2,586.9 240.2,586.8 240.3,586.8 240.3,586.8 
		240.4,586.8 240.4,586.8 240.5,586.8 240.5,586.8 240.6,586.9 240.6,587 240.6,587 240.5,587.1 240.5,587.1 240.4,587.2 
		240.4,587.2 240.3,587.2 240.3,587.1 	"/>
	<polygon id="polygon1039" class="st1" points="243.3,583.5 243.3,583.5 243.3,583.4 243.3,583.4 243.3,583.3 243.3,583.3 
		243.4,583.2 243.5,583.2 243.5,583.2 243.6,583.3 243.6,583.3 243.7,583.4 243.7,583.4 243.7,583.5 243.6,583.5 243.6,583.6 
		243.5,583.6 243.5,583.6 243.4,583.6 243.3,583.6 	"/>
	<polygon id="polygon1041" class="st1" points="243.7,584.3 243.6,584.3 243.6,584.2 243.6,584.2 243.7,584.1 243.7,584.1 
		243.8,584 243.8,584 243.9,584 243.9,584.1 244,584.1 244,584.2 244,584.2 244,584.3 244,584.3 243.9,584.4 243.9,584.4 
		243.8,584.4 243.8,584.4 243.7,584.4 	"/>
	<polygon id="polygon1043" class="st1" points="243.6,586.9 243.6,586.8 243.6,586.8 243.6,586.8 243.6,586.7 243.7,586.6 
		243.7,586.6 243.8,586.6 243.8,586.6 243.9,586.6 243.9,586.7 244,586.8 244,586.8 244,586.8 243.9,586.9 243.9,587 243.8,587 
		243.8,587 243.7,587 243.7,587 	"/>
	<polygon id="polygon1045" class="st1" points="240.8,590.6 240.8,590.5 240.8,590.4 240.8,590.4 240.8,590.3 240.8,590.3 
		240.9,590.2 241,590.2 241,590.2 241.1,590.3 241.1,590.3 241.2,590.4 241.2,590.4 241.2,590.5 241.1,590.6 241.1,590.6 241,590.6 
		241,590.6 240.9,590.6 240.8,590.6 	"/>
	<polygon id="polygon1047" class="st1" points="244.7,587.6 244.7,587.6 244.7,587.5 244.7,587.5 244.7,587.4 244.8,587.3 
		244.9,587.3 244.9,587.3 244.9,587.3 245,587.3 245.1,587.4 245.1,587.5 245.1,587.5 245.1,587.6 245.1,587.6 245,587.7 
		244.9,587.7 244.9,587.7 244.9,587.7 244.8,587.7 	"/>
	<polygon id="polygon1049" class="st1" points="245,585.6 244.9,585.5 244.9,585.5 244.9,585.5 245,585.4 245,585.3 245.1,585.3 
		245.1,585.3 245.2,585.3 245.3,585.3 245.3,585.4 245.3,585.5 245.3,585.5 245.3,585.5 245.3,585.6 245.3,585.7 245.2,585.7 
		245.1,585.7 245.1,585.7 245,585.7 	"/>
	<polygon id="polygon1051" class="st1" points="245.8,585.3 245.7,585.2 245.7,585.2 245.7,585.1 245.8,585.1 245.8,585 245.9,585 
		245.9,585 246,585 246,585 246.1,585.1 246.1,585.1 246.1,585.2 246.1,585.2 246.1,585.3 246,585.3 246,585.4 245.9,585.4 
		245.9,585.4 245.8,585.3 	"/>
	<polygon id="polygon1053" class="st1" points="243.7,587.5 243.6,587.5 243.5,587.5 243.5,587.5 243.5,587.5 243.6,587.6 
		243.7,587.6 243.9,587.6 243.9,587.6 244,587.7 244,587.7 244,587.9 244,588 244.1,588.1 244.1,588.1 244.1,588.1 244.1,588 
		244.1,587.9 244.2,587.7 244.2,587.7 244.2,587.6 244.2,587.6 244.4,587.6 244.6,587.6 244.6,587.5 244.6,587.5 244.6,587.5 
		244.6,587.5 244.4,587.5 244.2,587.4 244.2,587.4 244.2,587.4 244.2,587.4 244.1,587.2 244.1,587 244.1,587 244.1,587 244.1,587 
		244,587 244,587.2 244,587.4 244,587.4 243.9,587.4 243.9,587.4 	"/>
	<polygon id="polygon1055" class="st1" points="245.1,584 244.9,584.1 244.9,584.1 244.9,584.1 244.9,584.1 244.9,584.2 
		245.1,584.2 245.2,584.2 245.3,584.2 245.3,584.3 245.3,584.3 245.4,584.5 245.4,584.6 245.4,584.7 245.4,584.7 245.4,584.7 
		245.5,584.6 245.5,584.5 245.5,584.3 245.5,584.3 245.6,584.2 245.6,584.2 245.8,584.2 245.9,584.2 246,584.1 246,584.1 246,584.1 
		245.9,584.1 245.8,584 245.6,584 245.6,584 245.5,583.9 245.5,583.9 245.5,583.8 245.5,583.6 245.4,583.5 245.4,583.5 245.4,583.5 
		245.4,583.6 245.4,583.8 245.3,583.9 245.3,583.9 245.3,584 245.2,584 	"/>
	<polygon id="polygon1057" class="st1" points="227.8,590.6 227.7,590.6 227.6,590.7 227.6,590.7 227.6,590.7 227.7,590.7 
		227.8,590.8 228,590.8 228,590.8 228.1,590.8 228.1,590.9 228.1,591 228.2,591.2 228.2,591.3 228.2,591.3 228.2,591.3 228.2,591.2 
		228.3,591 228.3,590.9 228.3,590.8 228.4,590.8 228.4,590.8 228.5,590.8 228.7,590.7 228.8,590.7 228.8,590.7 228.8,590.7 
		228.7,590.6 228.5,590.6 228.4,590.6 228.4,590.6 228.3,590.5 228.3,590.5 228.3,590.3 228.2,590.2 228.2,590.1 228.2,590.1 
		228.2,590.1 228.2,590.2 228.1,590.3 228.1,590.5 228.1,590.5 228,590.6 228,590.6 	"/>
	<polygon id="polygon1059" class="st1" points="227.9,571 227.9,570.9 227.9,570.8 227.9,570.8 227.9,570.7 228,570.7 228.1,570.6 
		228.1,570.6 228.1,570.6 228.2,570.7 228.3,570.7 228.3,570.8 228.3,570.8 228.3,570.9 228.3,571 228.2,571 228.1,571 228.1,571 
		228.1,571 228,571 	"/>
	<polygon id="polygon1061" class="st1" points="228.5,571.7 228.5,571.6 228.5,571.6 228.5,571.5 228.5,571.4 228.6,571.4 
		228.7,571.4 228.7,571.4 228.7,571.4 228.8,571.4 228.9,571.4 228.9,571.5 228.9,571.6 228.9,571.6 228.9,571.7 228.8,571.7 
		228.7,571.7 228.7,571.8 228.7,571.7 228.6,571.7 	"/>
	<polygon id="polygon1063" class="st1" points="230.7,567.8 230.6,567.8 230.6,567.7 230.6,567.7 230.7,567.6 230.7,567.5 
		230.8,567.5 230.8,567.5 230.9,567.5 230.9,567.5 231,567.6 231,567.7 231,567.7 231,567.8 231,567.8 230.9,567.9 230.9,567.9 
		230.8,567.9 230.8,567.9 230.7,567.9 	"/>
	<polygon id="polygon1065" class="st1" points="231.1,568.1 231.1,568.1 231.1,568 231.1,568 231.1,567.9 231.2,567.9 231.2,567.8 
		231.3,567.8 231.3,567.8 231.4,567.9 231.4,567.9 231.5,568 231.5,568 231.5,568.1 231.4,568.1 231.4,568.2 231.3,568.2 
		231.3,568.2 231.2,568.2 231.2,568.2 	"/>
	<polygon id="polygon1067" class="st1" points="231.5,568.4 231.4,568.3 231.4,568.3 231.4,568.2 231.5,568.2 231.5,568.1 
		231.6,568.1 231.6,568.1 231.7,568.1 231.8,568.1 231.8,568.2 231.8,568.2 231.8,568.3 231.8,568.3 231.8,568.4 231.8,568.5 
		231.7,568.5 231.6,568.5 231.6,568.5 231.5,568.5 	"/>
	<polygon id="polygon1069" class="st1" points="230.9,568.9 230.8,568.8 230.8,568.8 230.8,568.7 230.9,568.7 230.9,568.6 
		231,568.6 231,568.6 231.1,568.6 231.1,568.6 231.2,568.7 231.2,568.7 231.2,568.8 231.2,568.8 231.2,568.9 231.1,568.9 231.1,569 
		231,569 231,569 230.9,568.9 	"/>
	<polygon id="polygon1071" class="st1" points="233.2,568 233.1,567.9 233.1,567.8 233.1,567.8 233.2,567.7 233.2,567.7 
		233.3,567.6 233.3,567.6 233.4,567.6 233.4,567.7 233.5,567.7 233.5,567.8 233.5,567.8 233.5,567.9 233.5,568 233.4,568 233.4,568 
		233.3,568 233.3,568 233.2,568 	"/>
	<polygon id="polygon1073" class="st1" points="234.5,568.6 234.5,568.6 234.5,568.5 234.5,568.5 234.5,568.4 234.6,568.4 
		234.7,568.3 234.7,568.3 234.7,568.3 234.8,568.4 234.9,568.4 234.9,568.5 234.9,568.5 234.9,568.6 234.9,568.6 234.8,568.7 
		234.7,568.7 234.7,568.7 234.7,568.7 234.6,568.7 	"/>
	<polygon id="polygon1075" class="st1" points="234.5,566.8 234.4,566.7 234.4,566.7 234.4,566.7 234.5,566.6 234.5,566.5 
		234.6,566.5 234.6,566.5 234.7,566.5 234.7,566.5 234.8,566.6 234.8,566.7 234.8,566.7 234.8,566.7 234.8,566.8 234.7,566.9 
		234.7,566.9 234.6,566.9 234.6,566.9 234.5,566.9 	"/>
	<polygon id="polygon1077" class="st1" points="232.7,566.6 232.7,566.5 232.7,566.5 232.7,566.5 232.7,566.4 232.8,566.3 
		232.9,566.3 232.9,566.3 233,566.3 233,566.3 233.1,566.4 233.1,566.5 233.1,566.5 233.1,566.5 233.1,566.6 233,566.7 233,566.7 
		232.9,566.7 232.9,566.7 232.8,566.7 	"/>
	<polygon id="polygon1079" class="st1" points="233.7,564.9 233.7,564.8 233.7,564.8 233.7,564.8 233.7,564.7 233.7,564.6 
		233.8,564.6 233.8,564.6 233.9,564.6 234,564.6 234,564.7 234,564.8 234.1,564.8 234,564.8 234,564.9 234,565 233.9,565 233.8,565 
		233.8,565 233.7,565 	"/>
	<polygon id="polygon1081" class="st1" points="238.8,572.4 238.7,572.3 238.7,572.3 238.7,572.2 238.8,572.2 238.8,572.1 
		238.9,572.1 238.9,572.1 239,572.1 239,572.1 239.1,572.2 239.1,572.2 239.1,572.3 239.1,572.3 239.1,572.4 239,572.4 239,572.5 
		238.9,572.5 238.9,572.5 238.8,572.4 	"/>
	<polygon id="polygon1083" class="st1" points="236.5,566.3 236.3,566.3 236.3,566.3 236.3,566.3 236.3,566.4 236.3,566.4 
		236.5,566.4 236.7,566.4 236.7,566.5 236.7,566.5 236.8,566.5 236.8,566.7 236.8,566.9 236.8,566.9 236.9,566.9 236.9,566.9 
		236.9,566.9 236.9,566.7 236.9,566.5 237,566.5 237,566.5 237,566.4 237.2,566.4 237.4,566.4 237.4,566.4 237.4,566.3 237.4,566.3 
		237.4,566.3 237.2,566.3 237,566.3 237,566.2 237,566.2 236.9,566.2 236.9,566 236.9,565.8 236.9,565.8 236.9,565.8 236.8,565.8 
		236.8,565.8 236.8,566 236.8,566.2 236.7,566.2 236.7,566.2 236.7,566.3 	"/>
	<polygon id="polygon1085" class="st1" points="229.4,571.1 229.2,571.1 229.2,571.2 229.2,571.2 229.2,571.2 229.2,571.2 
		229.4,571.2 229.6,571.3 229.6,571.3 229.6,571.3 229.6,571.4 229.7,571.5 229.7,571.7 229.7,571.8 229.7,571.8 229.7,571.8 
		229.8,571.7 229.8,571.5 229.8,571.4 229.8,571.3 229.9,571.3 229.9,571.3 230.1,571.2 230.2,571.2 230.3,571.2 230.3,571.2 
		230.3,571.2 230.2,571.1 230.1,571.1 229.9,571.1 229.9,571.1 229.8,571 229.8,571 229.8,570.8 229.8,570.7 229.7,570.6 
		229.7,570.6 229.7,570.6 229.7,570.7 229.7,570.8 229.6,571 229.6,571 229.6,571.1 229.6,571.1 	"/>
	<polygon id="polygon1087" class="st1" points="236.7,570 236.7,570 236.7,569.9 236.7,569.9 236.7,569.8 236.8,569.8 236.9,569.7 
		236.9,569.7 236.9,569.7 237,569.8 237.1,569.8 237.1,569.9 237.1,569.9 237.1,570 237.1,570 237,570.1 236.9,570.1 236.9,570.1 
		236.9,570.1 236.8,570.1 	"/>
	<polyline id="polyline1089" class="st2" points="247.5,573.3 246.8,573.9 245.4,575.1 244,576.2 242.5,577.3 240.9,578.4 
		239.2,579.5 236.7,581.2 233.2,583.6 230.6,585.4 228.8,586.7 227,588 225.2,589.4 223.5,590.9 222.1,592.1 221.3,592.9 
		220.8,593.3 221.1,592.9 221.8,592.1 222.4,591.4 223.1,590.7 223.8,590 224.5,589.3 225.3,588.6 226,588 227.2,587 228.9,585.8 
		230.5,584.5 232.2,583.3 234.8,581.6 238.3,579.2 240.8,577.5 242.5,576.3 244,575.1 245.6,573.9 246.3,573.3 	"/>
	<polygon id="polygon1091" class="st3" points="230.5,584.5 228.9,585.8 227.2,587 226,588 225.3,588.6 224.5,589.3 223.8,590 
		223.1,590.7 222.4,591.4 221.8,592.1 221.1,592.9 220.8,593.3 221.3,592.9 222.1,592.1 223.5,590.9 225.2,589.4 227,588 
		228.8,586.7 230.6,585.4 233.2,583.6 236.7,581.2 239.2,579.5 240.9,578.4 242.5,577.3 244,576.2 245.4,575.1 246.8,573.9 
		247.5,573.3 247.9,572.9 248.9,571.9 249.8,571 250.7,570 251.4,568.9 252,568.1 252.3,567.6 252.7,567 253,566.5 253.3,565.9 
		253.5,565.3 253.7,565 253.2,565.5 252.2,566.5 251.1,567.5 250,568.3 248.9,569.2 247.8,569.9 246.7,570.7 245.5,571.4 
		244.3,572.1 243.1,572.7 241.8,573.3 240.6,573.8 239.4,574.4 238.1,574.9 236.2,575.6 232.4,577 228.7,578.3 226.3,579.2 
		224.6,579.9 223.4,580.4 222.3,580.9 221.2,581.4 220.1,581.9 219.1,582.4 218.1,583 217.1,583.6 216.7,583.9 217.1,583.7 
		218,583.3 218.8,582.9 219.7,582.6 221,582.1 222.8,581.4 224.7,580.9 226.5,580.4 229.4,579.6 232.2,578.9 234.1,578.3 
		236.1,577.8 238,577.2 239.4,576.6 240.3,576.3 241.3,575.9 242.2,575.5 243.1,575.1 244,574.6 244.9,574.1 245.8,573.6 
		246.3,573.3 245.6,573.9 244,575.1 242.5,576.3 240.8,577.5 238.3,579.2 234.8,581.6 232.2,583.3 	"/>
	<polygon id="polygon1093" class="st1" points="220.8,581.7 221,581.7 221,581.7 221.2,581.6 221.3,581.6 221.4,581.5 221.4,581.5 
		221.4,581.4 221.5,581.3 221.5,581 221.5,580.9 221.5,577.4 221.5,577.3 221.5,577.1 221.5,577 221.4,576.9 221.3,576.8 
		221.2,576.7 221.1,576.6 221,576.6 220.9,576.6 220.9,576.6 220.8,576.6 220.8,576.2 221.1,576.3 221.7,576.3 222.1,576.3 
		222.4,576.3 223,576.3 223.4,576.2 226.4,579.7 226.4,577.4 226.4,577.3 226.4,577.1 226.4,577 226.3,576.9 226.2,576.8 
		226.1,576.7 226,576.6 225.8,576.6 225.8,576.6 225.6,576.6 225.5,576.6 225.5,576.2 225.8,576.2 226.1,576.3 226.4,576.3 
		226.6,576.3 226.8,576.3 227.4,576.2 227.7,576.2 227.7,576.6 227.6,576.6 227.5,576.6 227.5,576.6 227.3,576.6 227.2,576.7 
		227.1,576.8 227.1,576.8 227,576.9 227,577 226.9,577.1 226.9,577.3 226.9,577.4 226.9,582.1 226,582.1 222,577.6 222,580.9 
		222,581 222,581.2 222.1,581.3 222.1,581.4 222.2,581.5 222.2,581.5 222.3,581.6 222.5,581.7 222.6,581.7 222.7,581.7 222.8,581.7 
		222.9,581.7 222.9,582.1 222.6,582 222.1,582 221.8,582 221.6,582 221,582 220.8,582.1 220.8,581.7 	"/>
	<path id="path1095" inkscape:connector-curvature="0" class="st1" d="M229.9,582.1h-2.3v-0.4l0.2,0l0.3-0.1l0.1-0.1l0.1,0l0.1-0.1
		l0.1-0.1l0.1-0.1l0-0.1l1.9-4.5l-0.2-0.5h2l2.1,5l0.1,0.1l0.1,0.1l0,0l0.1,0.1l0.1,0l0.1,0l0.2,0l0.1,0v0.4l-0.5,0l-0.9,0h-0.4
		h-0.5l-1,0l-0.5,0v-0.4l0.2,0l0.3-0.1l0.2-0.1l0.1-0.1l0.1-0.1l0-0.1l0-0.1l0-0.1l0-0.1l0-0.1l-0.5-1.1h-2.1l-0.1,0.3l-0.1,0.3
		l-0.1,0.3l-0.1,0.1l0,0.1l0,0.1l0,0.1v0.1l0,0.1l0,0.1l0.1,0.1l0.1,0.1l0,0l0.1,0l0.2,0l0.1,0h0.1l0.1,0L229.9,582.1z M229.7,579.9
		h1.8l-0.9-2.2L229.7,579.9z"/>
	<polygon id="polygon1097" class="st1" points="236.3,581.5 236.4,581.6 236.5,581.6 236.6,581.7 236.7,581.7 236.9,581.8 
		237.1,581.8 237.3,581.8 237.4,581.8 237.5,581.8 237.7,581.7 237.8,581.6 237.9,581.6 238,581.5 238,581.4 238.1,581.3 
		238.1,581.1 238.1,581 238.1,581 238.1,580.8 238.1,580.7 238,580.6 237.9,580.5 237.9,580.5 237.8,580.4 237.7,580.3 237.4,580.1 
		236.9,579.8 236.4,579.5 236.1,579.2 235.9,579.1 235.7,579 235.7,578.9 235.6,578.8 235.4,578.5 235.3,578.3 235.3,578 
		235.3,577.8 235.3,577.7 235.4,577.4 235.4,577.2 235.5,577.1 235.6,576.8 235.7,576.7 235.8,576.6 235.9,576.5 236.1,576.4 
		236.3,576.3 236.4,576.3 236.5,576.3 236.7,576.2 236.9,576.2 237.2,576.1 237.3,576.1 237.6,576.1 237.8,576.2 238,576.2 
		238.1,576.2 238.2,576.2 238.4,576.3 238.5,576.3 238.7,576.4 238.8,576.4 238.9,576.4 239,576.4 239,576.4 239.1,576.4 
		239.1,576.3 239.1,576.3 239.1,576.2 239.5,576.2 239.6,577.8 239.2,577.8 239.2,577.7 239.1,577.5 239.1,577.4 239,577.3 
		238.8,577.1 238.7,577 238.6,576.9 238.4,576.7 238.2,576.7 238.1,576.6 237.8,576.6 237.6,576.6 237.5,576.6 237.4,576.6 
		237.3,576.6 237.2,576.7 237.1,576.7 237.1,576.8 237,576.8 236.9,577 236.9,577.1 236.9,577.1 236.9,577.2 237,577.4 237,577.5 
		237.1,577.6 237.3,577.7 237.4,577.8 237.6,577.9 238.2,578.3 238.4,578.4 238.8,578.6 239,578.8 239.2,578.9 239.4,579.1 
		239.5,579.2 239.6,579.3 239.7,579.5 239.8,579.6 239.8,579.8 239.9,580 239.9,580.2 239.9,580.3 239.9,580.4 239.9,580.5 
		239.9,580.8 239.8,581 239.7,581.2 239.6,581.4 239.5,581.5 239.4,581.6 239.2,581.8 238.9,581.9 238.8,582 238.6,582 238.4,582.1 
		238.1,582.2 237.7,582.2 237.6,582.2 237.4,582.2 237.2,582.2 237,582.2 236.8,582.1 236.5,582.1 236.2,582 236.1,582 236,582 
		235.9,582 235.9,582 235.8,582.1 235.8,582.1 235.8,582.1 235.4,582.1 235.2,580.4 235.6,580.4 235.7,580.6 235.8,581 235.9,581.2 
		236,581.2 236.1,581.4 	"/>
	<polygon id="polygon1099" class="st3" points="239.2,579.5 236.7,581.2 233.2,583.6 230.6,585.4 228.8,586.7 227,588 225.2,589.4 
		223.5,590.9 222.1,592.1 221.3,592.9 220.8,593.3 221.1,592.9 221.8,592.1 222.4,591.4 223.1,590.7 223.8,590 224.5,589.3 
		225.3,588.6 226,588 227.2,587 228.9,585.8 230.5,584.5 232.2,583.3 234.8,581.6 238.3,579.2 240.8,577.5 242.5,576.3 244,575.1 
		245.6,573.9 246.3,573.3 247.9,572.9 247.5,573.3 246.8,573.9 245.4,575.1 244,576.2 242.5,577.3 240.9,578.4 	"/>
</g>
</svg>
